<?xml version="1.0" encoding="UTF-8" standalone="no"?>
<svg
   xmlns:dc="http://purl.org/dc/elements/1.1/"
   xmlns:cc="http://creativecommons.org/ns#"
   xmlns:rdf="http://www.w3.org/1999/02/22-rdf-syntax-ns#"
   xmlns:svg="http://www.w3.org/2000/svg"
   xmlns="http://www.w3.org/2000/svg"
   xmlns:sodipodi="http://sodipodi.sourceforge.net/DTD/sodipodi-0.dtd"
   xmlns:inkscape="http://www.inkscape.org/namespaces/inkscape"
   version="1.1"
   width="841.88977"
   height="595.27557"
   id="svg2"
   inkscape:version="0.91 r13725"
   viewBox="0 0 841.88977 595.27557"
   sodipodi:docname="Marca Sistemas-central.svg">
  <metadata
     id="metadata18">
    <rdf:RDF>
      <cc:Work
         rdf:about="">
        <dc:format>image/svg+xml</dc:format>
        <dc:type
           rdf:resource="http://purl.org/dc/dcmitype/StillImage" />
        <dc:title></dc:title>
      </cc:Work>
    </rdf:RDF>
  </metadata>
  <defs
     id="defs16" />
  <sodipodi:namedview
     pagecolor="#ffffff"
     bordercolor="#666666"
     borderopacity="1"
     objecttolerance="10"
     gridtolerance="10"
     guidetolerance="10"
     inkscape:pageopacity="0"
     inkscape:pageshadow="2"
     inkscape:window-width="1301"
     inkscape:window-height="744"
     id="namedview14"
     showgrid="false"
     inkscape:zoom="0.35277777"
     inkscape:cx="420.94489"
     inkscape:cy="297.63779"
     inkscape:window-x="65"
     inkscape:window-y="24"
     inkscape:window-maximized="1"
     inkscape:current-layer="svg2" />
  <path
     d="m 498.0517,136.3201 c 0,-5.9007 0,-14.4356 0,-16.7953 0,-3.7095 -2.2049,-6.8991 -7.1909,-6.8991 -34.0807,0 -177.8321,0 -179.3141,0 -2.921,0 -6.9895,2.4732 -6.9036,7.1896 0.0721,3.9178 0,23.7223 0,23.7223 0,0 0.0134,44.2457 0.0134,47.5883 0,5.2276 1.3262,6.8214 6.4611,6.8214 4.1456,0 50.5002,0 68.2272,0 7.2336,0 6.8404,3.5519 6.8404,6.9089 0,1.1391 0,8.8241 0,14.8146 0,5.6755 -1.9741,7.2778 -7.0505,7.2778 -4.1069,0 -50.3261,0 -67.8227,0 -5.3043,0 -6.6555,1.3764 -6.6555,6.5066 0,5.6231 0,14.4612 0,17.3094 0,4.8148 3.4928,5.7555 6.782,5.7555 3.2938,0 104.391,0 104.391,0 0,0 68.3355,0 75.2775,0 6.9447,0 6.7503,-4.361 6.7503,-6.7562 0,-1.557 0,-10.484 0,-16.5424 0,-4.1391 -1.4774,-5.6912 -5.7221,-5.6912 -2.3315,0 -4.9498,0 -6.9515,0 -5.6273,0 -7.1703,-1.6368 -7.1703,-7.0945 0,-2.3394 0,-52.8373 0,-71.432 0,-4.7407 2.8827,-6.7954 7.1929,-6.7954 1.6492,0 4.5545,0 7.1886,0 5.1122,0 5.6568,-1.2446 5.6568,-5.8883 z m -56.4865,91.2384 0,0 c -5.2211,0 -12.0752,0.0419 -15.4592,0.0419 -5.4646,0 -7.2676,-2.2541 -7.2676,-6.8735 0,-1.5236 0,-29.0085 0,-42.1795 0,-4.1885 -2.5958,-6.9312 -6.8404,-6.9312 -18.7733,0 -69.7522,0 -70.9405,0 -3.1016,0 -6.8246,-0.7302 -6.8246,-7.4142 0,-6.519 0,-15.0342 0,-15.4477 0,-6.0715 3.42,-6.5459 7.021,-6.5459 1.5204,0 76.2064,0 99.9949,0 4.5046,0 7.1817,2.7229 7.1817,7.1548 0,18.7313 0,67.9843 0,71.0712 0,2.5925 0.1289,7.1241 -6.8653,7.1241 z"
     style="fill:#008bd0;fill-rule:evenodd"
     id="path4"
     inkscape:connector-curvature="0" />
  <path
     d="m 148.9972,333.4692 c 2.5234,2.8568 5.0031,4.9886 7.4539,6.41 2.4509,1.4065 4.8873,2.1174 7.3237,2.1174 2.2623,0 4.1332,-0.6092 5.5833,-1.8276 1.4646,-1.2181 2.1899,-2.7554 2.1899,-4.626 0,-2.0593 -0.6236,-3.6548 -1.8853,-4.7712 -1.2616,-1.1167 -4.104,-2.277 -8.5417,-3.4662 -6.0909,-1.6387 -10.4126,-3.785 -12.9359,-6.4099 -2.5236,-2.6394 -3.7853,-6.2503 -3.7853,-10.8329 0,-5.9608 1.9869,-10.8044 5.9752,-14.5605 3.9735,-3.7558 9.1506,-5.6267 15.488,-5.6267 3.4371,0 6.6857,0.464 9.7601,1.3778 3.0745,0.9278 5.9893,2.3203 8.7447,4.1908 l -5.322,12.1821 c -1.9289,-1.6387 -3.9014,-2.8715 -5.9316,-3.7128 -2.0157,-0.8266 -4.0171,-1.2469 -6.004,-1.2469 -2.0301,0 -3.6833,0.4928 -4.9597,1.4646 -1.2761,0.9715 -1.9141,2.2335 -1.9141,3.7561 0,1.5518 0.5511,2.7987 1.6676,3.7414 1.1167,0.9282 3.2777,1.8275 6.4679,2.6685 l 0.7689,0.2174 c 6.9174,1.8708 11.4712,3.9158 13.6463,6.1637 1.4794,1.5226 2.5961,3.3643 3.3647,5.4961 0.7685,2.1466 1.1456,4.5102 1.1456,7.1207 0,6.5985 -2.1607,11.9064 -6.4968,15.9087 -4.3365,4.0171 -10.1228,6.0185 -17.3448,6.0185 -4.3361,0 -8.2808,-0.7394 -11.8484,-2.2043 -3.5528,-1.479 -6.9754,-3.785 -10.2529,-6.9319 l 7.6427,-12.6169 z m 46.3924,-36.1974 c 0,-2.2915 0.8121,-4.2348 2.4508,-5.8447 1.6243,-1.6095 3.582,-2.4216 5.888,-2.4216 2.3783,0 4.3652,0.7977 5.9603,2.3784 1.6099,1.5806 2.4076,3.5384 2.4076,5.8879 0,2.3492 -0.8121,4.3361 -2.4512,5.9748 -1.6239,1.6387 -3.5964,2.4653 -5.9167,2.4653 -2.2768,0 -4.2345,-0.841 -5.8732,-2.5089 -1.6391,-1.6676 -2.4656,-3.64 -2.4656,-5.9312 z m 0.7833,56.2973 0,-42.8975 15.1401,0 0,42.8975 -15.1401,0 z m 22.7104,-3.5675 3.1469,-11.5726 c 2.2187,1.9285 4.6407,3.4079 7.2945,4.4522 2.6541,1.0295 5.3224,1.5514 8.0053,1.5514 1.8997,0 3.3499,-0.3042 4.3362,-0.9134 1.0006,-0.6092 1.4937,-1.4938 1.4937,-2.6541 0,-1.8997 -2.0013,-3.3207 -6.004,-4.2634 -1.3052,-0.3046 -2.3636,-0.5803 -3.1469,-0.7977 -4.539,-1.2472 -7.8168,-2.8859 -9.8758,-4.9164 -2.045,-2.0158 -3.0745,-4.6552 -3.0745,-7.8745 0,-4.1768 1.5663,-7.4978 4.6988,-9.992 3.1321,-2.4944 7.3669,-3.7416 12.7181,-3.7416 2.7555,0 5.5545,0.319 8.3968,0.957 2.8424,0.6381 5.7575,1.6243 8.7303,2.9584 l -3.1469,10.4418 c -2.0013,-1.3633 -4.046,-2.4076 -6.1198,-3.1181 -2.0738,-0.7105 -4.1331,-1.0587 -6.2069,-1.0587 -1.7259,0 -3.0312,0.2757 -3.9158,0.8121 -0.8846,0.5368 -1.3197,1.3197 -1.3197,2.3348 0,1.523 1.9869,2.8135 5.9604,3.8722 0.9138,0.2466 1.5954,0.4351 2.045,0.5512 5.2351,1.4937 8.8751,3.2629 10.9345,5.2787 2.0449,2.0302 3.0745,4.7712 3.0745,8.2227 0,4.3797 -1.6823,7.9329 -5.0614,10.6303 -3.3643,2.7118 -7.8309,4.0604 -13.371,4.0604 -3.7705,0 -7.2656,-0.4351 -10.4994,-1.2905 -3.2342,-0.8702 -6.265,-2.1755 -9.0929,-3.9302 z m 48.4517,3.5675 0,-32.1947 -6.4388,0 0,-10.7028 6.4388,0 0,-12.7909 14.8791,0 0,12.7909 6.4391,0 0,10.7028 -6.4391,0 0,32.1947 -14.8791,0 z m 57.9508,-26.974 c -0.2899,-2.4364 -1.2181,-4.3942 -2.7843,-5.8735 -1.5807,-1.4791 -3.5096,-2.2188 -5.8155,-2.2188 -2.4653,0 -4.4374,0.6673 -5.9024,2.0158 -1.4501,1.3489 -2.4216,3.3791 -2.9147,6.0765 l 17.4169,0 z m 14.8795,8.5273 -32.6302,0 c 0.0292,3.3066 0.8849,5.8587 2.5525,7.6571 1.6823,1.7984 4.0463,2.6974 7.106,2.6974 2.3059,0 4.2348,-0.4351 5.8154,-1.2908 1.5663,-0.8699 2.7699,-2.1463 3.5965,-3.843 l 11.3844,4.5827 c -1.3633,3.2921 -3.7706,5.8299 -7.2221,7.6138 -3.4663,1.7836 -7.7007,2.6827 -12.7185,2.6827 -7.483,0 -13.487,-2.0738 -17.9972,-6.2214 -4.5247,-4.162 -6.787,-9.6293 -6.787,-16.431 0,-6.6853 2.2623,-12.2398 6.7725,-16.6628 4.5247,-4.4233 10.2385,-6.6276 17.1415,-6.6276 7.106,0 12.7185,2.2334 16.8225,6.7145 4.1043,4.481 6.1637,10.6155 6.1637,18.4031 l 0,0.7253 z m 65.506,18.4467 0,-23.4209 c 0,-3.7128 -0.464,-6.2794 -1.3774,-7.6863 -0.9282,-1.4213 -2.5237,-2.1318 -4.8004,-2.1318 -2.8279,0 -4.8004,0.9862 -5.9168,2.9584 -1.1023,1.9725 -1.6535,5.9896 -1.6535,12.0949 l 0,18.1857 -14.6182,0 0,-23.4209 c 0,-3.7705 -0.4495,-6.3522 -1.3629,-7.7299 -0.8994,-1.3921 -2.48,-2.0882 -4.7424,-2.0882 -2.8279,0 -4.8148,0.9718 -5.9459,2.9151 -1.1312,1.9433 -1.6968,5.9892 -1.6968,12.1382 l 0,18.1857 -14.7051,0 0,-42.8975 14.8792,0 0,7.4542 c 1.7837,-3.0309 3.843,-5.2643 6.1778,-6.7001 2.3351,-1.4357 5.0905,-2.1462 8.2519,-2.1462 3.4804,0 6.3374,0.6672 8.5562,2.0157 2.219,1.3489 3.8141,3.3791 4.7859,6.0765 1.6676,-2.7263 3.6981,-4.7568 6.1053,-6.0909 2.4073,-1.3341 5.2499,-2.0013 8.4982,-2.0013 2.5816,0 4.8439,0.4351 6.7725,1.2908 1.9433,0.8698 3.5676,2.1607 4.8728,3.901 1.0443,1.3486 1.7837,2.944 2.2335,4.7568 0.4351,1.8125 0.6525,4.7564 0.6525,8.8316 l 0,0.9426 0,24.5668 -14.9664,0 z m 58.3859,-21.4923 c 0,-3.3499 -0.8846,-5.9893 -2.6683,-7.947 -1.7839,-1.9577 -4.2203,-2.9295 -7.3092,-2.9295 -3.0889,0 -5.5109,0.9718 -7.2801,2.9151 -1.7692,1.9285 -2.6538,4.5971 -2.6538,7.9614 0,3.3357 0.8846,5.9751 2.6682,7.9037 1.784,1.9288 4.2056,2.8859 7.2657,2.8859 3.0889,0 5.5253,-0.9571 7.3092,-2.8859 1.7837,-1.9286 2.6683,-4.568 2.6683,-7.9037 z m 13.3273,-21.4052 0,42.8975 -13.9218,0 0,-6.961 c -1.9869,2.9728 -4.2056,5.1482 -6.6856,6.5404 -2.48,1.3777 -5.3948,2.0738 -8.7303,2.0738 -5.7282,0 -10.2965,-2.0882 -13.7336,-6.265 -3.4226,-4.1765 -5.1338,-9.789 -5.1338,-16.8077 0,-7.0047 1.7984,-12.5592 5.3804,-16.6924 3.582,-4.1184 8.3968,-6.1777 14.4585,-6.1777 3.2341,0 6.0184,0.696 8.3532,2.0738 2.3351,1.3777 4.3365,3.4951 6.004,6.3666 l 0,-7.0483 14.009,0 z m 7.4109,39.33 3.147,-11.5726 c 2.2187,1.9285 4.6407,3.4079 7.2945,4.4522 2.6541,1.0295 5.3223,1.5514 8.0053,1.5514 1.8997,0 3.3499,-0.3042 4.3361,-0.9134 1.0007,-0.6092 1.4938,-1.4938 1.4938,-2.6541 0,-1.8997 -2.0013,-3.3207 -6.004,-4.2634 -1.3053,-0.3046 -2.3636,-0.5803 -3.1469,-0.7977 -4.5391,-1.2472 -7.8168,-2.8859 -9.8759,-4.9164 -2.0449,-2.0158 -3.0744,-4.6552 -3.0744,-7.8745 0,-4.1768 1.5662,-7.4978 4.6987,-9.992 3.1322,-2.4944 7.367,-3.7416 12.7182,-3.7416 2.7554,0 5.5545,0.319 8.3968,0.957 2.8423,0.6381 5.7574,1.6243 8.7303,2.9584 l -3.147,10.4418 c -2.0013,-1.3633 -4.0459,-2.4076 -6.1197,-3.1181 -2.0738,-0.7105 -4.1332,-1.0587 -6.207,-1.0587 -1.7259,0 -3.0311,0.2757 -3.9157,0.8121 -0.8846,0.5368 -1.3197,1.3197 -1.3197,2.3348 0,1.523 1.9869,2.8135 5.9604,3.8722 0.9138,0.2466 1.5954,0.4351 2.0449,0.5512 5.2352,1.4937 8.8752,3.2629 10.9346,5.2787 2.0449,2.0302 3.0744,4.7712 3.0744,8.2227 0,4.3797 -1.6823,7.9329 -5.0613,10.6303 -3.3643,2.7118 -7.831,4.0604 -13.371,4.0604 -3.7706,0 -7.2657,-0.4351 -10.4995,-1.2905 -3.2341,-0.8702 -6.265,-2.1755 -9.0929,-3.9302 z M 590.9078,332.164 c 0,-3.3355 -0.8846,-5.9748 -2.6538,-7.9037 -1.7548,-1.9289 -4.1768,-2.8859 -7.2221,-2.8859 -3.06,0 -5.4673,0.957 -7.222,2.8859 -1.7548,1.9289 -2.625,4.5682 -2.625,7.9037 0,3.3643 0.8702,6.004 2.6102,7.9181 1.7404,1.9145 4.1479,2.8715 7.2368,2.8715 3.0453,0 5.4673,-0.957 7.2221,-2.8859 1.7692,-1.9289 2.6538,-4.5683 2.6538,-7.9037 z m 13.429,-44.4638 0,65.8689 -13.9366,0 0,-6.961 c -1.9289,2.8859 -4.0895,5.0466 -6.4968,6.4679 -2.4075,1.4358 -5.0758,2.1463 -8.0197,2.1463 -6.0329,0 -10.8333,-2.0882 -14.4009,-6.2503 -3.5675,-4.1623 -5.3512,-9.7745 -5.3512,-16.8224 0,-6.8306 1.7837,-12.3559 5.3368,-16.5615 3.5532,-4.2057 8.1791,-6.3086 13.893,-6.3086 3.6256,0 6.584,0.6524 8.861,1.9577 2.2768,1.3053 4.307,3.4951 6.0909,6.5551 -0.1741,-1.015 -0.2901,-2.1754 -0.377,-3.4662 -0.0872,-1.2905 -0.1305,-2.6974 -0.1305,-4.1909 l 0,-22.435 14.531,0 z m 40.8234,38.8949 c -0.2899,-2.4364 -1.2181,-4.3942 -2.7843,-5.8735 -1.5807,-1.4791 -3.5096,-2.2188 -5.8155,-2.2188 -2.4653,0 -4.4374,0.6673 -5.9024,2.0158 -1.4501,1.3489 -2.4216,3.3791 -2.9147,6.0765 l 17.4169,0 z m 14.8795,8.5273 -32.6302,0 c 0.0292,3.3066 0.8849,5.8587 2.5525,7.6571 1.6823,1.7984 4.0462,2.6974 7.106,2.6974 2.3059,0 4.2348,-0.4351 5.8154,-1.2908 1.5663,-0.8699 2.7699,-2.1463 3.5965,-3.843 l 11.3844,4.5827 c -1.3633,3.2921 -3.7706,5.8299 -7.2221,7.6138 -3.4663,1.7836 -7.7007,2.6827 -12.7185,2.6827 -7.483,0 -13.487,-2.0738 -17.9972,-6.2214 -4.5247,-4.162 -6.787,-9.6293 -6.787,-16.431 0,-6.6853 2.2623,-12.2398 6.7725,-16.6628 4.5247,-4.4233 10.2385,-6.6276 17.1415,-6.6276 7.106,0 12.7185,2.2334 16.8225,6.7145 4.1043,4.481 6.1637,10.6155 6.1637,18.4031 l 0,0.7253 z m -513.0746,126.4316 0,-64.8867 17.8779,0 0,64.8867 -17.8779,0 z m 31.0213,0 0,-44.7399 14.4599,0 0,9.0749 c 2.0872,-3.645 4.5072,-6.3073 7.2597,-8.0011 2.7377,-1.679 6.0352,-2.5259 9.8618,-2.5259 2.9039,0 5.4751,0.4688 7.7289,1.3915 2.2535,0.9377 4.0987,2.2688 5.5053,4.0233 1.1951,1.4974 2.0269,3.3426 2.5259,5.4902 0.4994,2.163 0.7564,5.3847 0.7564,9.665 l 0,25.622 -15.7906,0 0,-23.9734 c 0,-3.5847 -0.5899,-6.1709 -1.7545,-7.8044 -1.1646,-1.6184 -3.0249,-2.4351 -5.5964,-2.4351 -3.282,0 -5.6719,1.2099 -7.1844,3.6299 -1.4974,2.42 -2.2534,6.3525 -2.2534,11.7975 l 0,18.7855 -15.5186,0 z m 60.7879,0 0,-33.5778 -6.7309,0 0,-11.1621 6.7309,0 0,-9.1811 c 0,-5.203 1.4217,-9.1204 4.2499,-11.7372 2.8436,-2.6315 7.0939,-3.9475 12.7356,-3.9475 0.8016,0 1.7544,0.0757 2.8587,0.2268 1.1039,0.1361 2.2987,0.3479 3.5692,0.605 l 0,12.0549 c -0.7108,-0.2725 -1.361,-0.484 -1.9663,-0.6204 -0.62,-0.136 -1.1646,-0.1964 -1.6636,-0.1964 -1.4823,0 -2.5712,0.4384 -3.2518,1.3309 -0.6807,0.8924 -1.0135,2.3292 -1.0135,4.3259 l 0,7.1391 7.8952,0 0,11.1621 -7.8952,0 0,33.5778 -15.5182,0 z m 62.0732,-22.2642 c 0,-3.3276 -0.8469,-5.9591 -2.5256,-7.8801 -1.6791,-1.921 -3.963,-2.8889 -6.8217,-2.8889 -2.8889,0 -5.1726,0.9679 -6.8516,2.8889 -1.6636,1.921 -2.4958,4.5525 -2.4958,7.8801 0,3.3426 0.8322,5.9745 2.4807,7.8801 1.6486,1.9059 3.9476,2.8587 6.8667,2.8587 2.8888,0 5.1728,-0.9528 6.8518,-2.8587 1.6637,-1.9056 2.4955,-4.5375 2.4955,-7.8801 z m 15.6998,0 c 0,3.2216 -0.6351,6.2922 -1.8905,9.1811 -1.2554,2.9039 -3.0705,5.5053 -5.4751,7.8043 -2.4201,2.2991 -5.1276,4.0535 -8.1224,5.2335 -3.0099,1.1797 -6.186,1.7695 -9.5591,1.7695 -3.4332,0 -6.6398,-0.5898 -9.6346,-1.7695 -3.0098,-1.18 -5.6869,-2.9344 -8.0466,-5.2335 -2.3745,-2.2535 -4.1745,-4.825 -5.4148,-7.7289 -1.2401,-2.9191 -1.8604,-6.0047 -1.8604,-9.2565 0,-3.2669 0.6203,-6.3526 1.8453,-9.2565 1.2252,-2.8889 3.0249,-5.4906 5.4299,-7.8047 2.3292,-2.2686 4.9915,-3.9928 8.0014,-5.1424 2.9948,-1.1495 6.2161,-1.7242 9.6798,-1.7242 3.4636,0 6.6853,0.5747 9.665,1.7242 2.9797,1.1496 5.6568,2.8738 8.0165,5.1424 2.4351,2.3446 4.2653,4.961 5.5053,7.8499 1.2403,2.8889 1.8603,5.9745 1.8603,9.2113 z m 9.166,22.2642 0,-44.7399 14.8982,0 0,10.5421 c 1.5427,-3.8571 3.6302,-6.7306 6.2922,-8.6516 2.662,-1.921 5.8837,-2.8889 9.6647,-2.8889 0.6204,0 1.2554,0.0151 1.8909,0.0604 0.6351,0.0455 1.2705,0.121 1.9206,0.2118 l -1.5426,14.3385 c -0.9377,-0.3174 -1.8754,-0.5443 -2.783,-0.6957 -0.9226,-0.1361 -1.8,-0.2115 -2.662,-0.2115 -3.8266,0 -6.7761,1.1797 -8.8634,3.5239 -2.0721,2.3443 -3.1157,5.6719 -3.1157,9.9828 l 0,18.5281 -15.6999,0 z m 99.7198,0 0,-24.4272 c 0,-3.8718 -0.4842,-6.5489 -1.437,-8.0162 -0.9679,-1.4823 -2.6319,-2.2233 -5.0063,-2.2233 -2.9496,0 -5.0066,1.0286 -6.1712,3.0853 -1.1496,2.0571 -1.7243,6.247 -1.7243,12.6146 l 0,18.9668 -15.2461,0 0,-24.4272 c 0,-3.9325 -0.4689,-6.6247 -1.4216,-8.0614 -0.9378,-1.4521 -2.5863,-2.1781 -4.946,-2.1781 -2.9492,0 -5.0214,1.0135 -6.2014,3.0401 -1.1797,2.0269 -1.7695,6.2466 -1.7695,12.6598 l 0,18.9668 -15.3369,0 0,-44.7399 15.5185,0 0,7.7742 c 1.8604,-3.1613 4.0079,-5.4906 6.4434,-6.9879 2.4351,-1.4974 5.3086,-2.2384 8.606,-2.2384 3.6299,0 6.6096,0.6957 8.9237,2.1023 2.3141,1.4066 3.9781,3.5243 4.9915,6.3374 1.7394,-2.8436 3.8568,-4.961 6.3676,-6.3525 2.5105,-1.3915 5.4752,-2.0872 8.8631,-2.0872 2.6925,0 5.0518,0.4537 7.0637,1.3462 2.0265,0.9072 3.7207,2.2535 5.082,4.0686 1.0889,1.4066 1.8603,3.0702 2.3292,4.961 0.4538,1.8905 0.6807,4.9611 0.6807,9.2113 l 0,0.9829 0,25.622 -15.6091,0 z m 60.8935,-22.4154 c 0,-3.4938 -0.9226,-6.2466 -2.783,-8.2886 -1.8607,-2.042 -4.4017,-3.0551 -7.623,-3.0551 -3.2217,0 -5.7476,1.0131 -7.5929,3.04 -1.8453,2.0115 -2.7679,4.7945 -2.7679,8.3037 0,3.4788 0.9226,6.2316 2.783,8.2431 1.8603,2.0118 4.3863,3.0098 7.5778,3.0098 3.2213,0 5.7623,-0.998 7.623,-3.0098 1.8604,-2.0115 2.783,-4.7643 2.783,-8.2431 z m 13.8998,-22.3245 0,44.7399 -14.5201,0 0,-7.2601 c -2.0722,3.1007 -4.3863,5.3695 -6.9726,6.8214 -2.5862,1.437 -5.6266,2.1629 -9.1053,2.1629 -5.9745,0 -10.7388,-2.178 -14.3235,-6.5341 -3.5695,-4.3558 -5.3541,-10.2093 -5.3541,-17.5297 0,-7.3057 1.8754,-13.0985 5.6112,-17.4091 3.7361,-4.2954 8.7575,-6.4433 15.0798,-6.4433 3.3729,0 6.2768,0.7259 8.7119,2.1629 2.4351,1.4368 4.5224,3.645 6.2621,6.6398 l 0,-7.3506 14.6106,0 z m 44.0294,14.7015 c -1.543,-1.3613 -3.0102,-2.3443 -4.4319,-2.9646 -1.4216,-0.62 -2.904,-0.9377 -4.4771,-0.9377 -3.1308,0 -5.6263,1.0285 -7.4715,3.1006 -1.8453,2.0722 -2.7679,4.8703 -2.7679,8.4247 0,3.4181 0.9678,6.1558 2.8888,8.1978 1.9207,2.042 4.4922,3.0551 7.7441,3.0551 1.6033,0 3.1007,-0.3173 4.5072,-0.9528 1.4066,-0.635 2.7378,-1.6183 4.0083,-2.9492 l 0,13.688 c -1.8909,1.0587 -3.7814,1.8453 -5.6722,2.3443 -1.8905,0.4994 -3.8417,0.7564 -5.8532,0.7564 -6.882,0 -12.4631,-2.2082 -16.7284,-6.6246 -4.2804,-4.4168 -6.4132,-10.2398 -6.4132,-17.4392 0,-7.0031 2.1781,-12.7356 6.5342,-17.1822 4.3712,-4.4469 9.9522,-6.6702 16.7887,-6.6702 2.2689,0 4.326,0.2269 6.1561,0.6655 1.8299,0.4384 3.5696,1.1496 5.188,2.1325 l 0,13.3556 z m -24.2305,49.5497 0,-6.1709 c 2.3594,0.6502 4.5676,1.1492 6.6096,1.482 2.0571,0.3479 3.8417,0.5145 5.3693,0.5145 1.2705,0 2.2236,-0.2571 2.8587,-0.7715 0.6354,-0.5292 0.9528,-1.3309 0.9528,-2.4201 0,-0.9528 -0.4233,-1.6485 -1.2705,-2.1174 -0.8318,-0.4537 -2.1778,-0.6806 -4.0079,-0.6806 -0.6204,0 -1.1043,0 -1.4522,0.0151 -0.3629,0.015 -0.6807,0.0452 -0.983,0.0757 l 0,-9.4381 5.0821,0 0,3.7207 0.8318,0 c 3.282,0 5.7928,0.7262 7.5322,2.1931 1.7394,1.4672 2.6167,3.5695 2.6167,6.3224 0,2.9646 -0.9682,5.2482 -2.9193,6.8515 -1.9509,1.6184 -4.7342,2.42 -8.3339,2.42 -1.7997,0 -3.781,-0.1662 -5.9289,-0.4839 -2.163,-0.3328 -4.4771,-0.8318 -6.9575,-1.5125 z m 68.0477,-41.9267 c 0,-3.4938 -0.9227,-6.2466 -2.783,-8.2886 -1.8607,-2.042 -4.4017,-3.0551 -7.623,-3.0551 -3.2217,0 -5.7476,1.0131 -7.5929,3.04 -1.8453,2.0115 -2.7679,4.7945 -2.7679,8.3037 0,3.4788 0.9226,6.2316 2.783,8.2431 1.8603,2.0118 4.3863,3.0098 7.5778,3.0098 3.2213,0 5.7623,-0.998 7.623,-3.0098 1.8603,-2.0115 2.783,-4.7643 2.783,-8.2431 z m 13.8998,-22.3245 0,44.7399 -14.5202,0 0,-7.2601 c -2.0721,3.1007 -4.3862,5.3695 -6.9725,6.8214 -2.5862,1.437 -5.6266,2.1629 -9.1053,2.1629 -5.9745,0 -10.7388,-2.178 -14.3235,-6.5341 -3.5695,-4.3558 -5.3541,-10.2093 -5.3541,-17.5297 0,-7.3057 1.8754,-13.0985 5.6112,-17.4091 3.7361,-4.2954 8.7574,-6.4433 15.0798,-6.4433 3.3728,0 6.2768,0.7259 8.7119,2.1629 2.4351,1.4368 4.5224,3.645 6.2621,6.6398 l 0,-7.3506 14.6106,0 z m -9.1657,-20.3284 c -0.8924,3.8269 -2.1177,6.625 -3.6754,8.4096 -1.5581,1.7698 -3.5696,2.662 -6.0198,2.662 -0.6806,0 -1.301,-0.0302 -1.8452,-0.1059 -0.5446,-0.0754 -1.0587,-0.1964 -1.5732,-0.3325 l -4.0233,-1.1649 -0.136,-0.0453 c -1.5276,-0.4082 -2.4958,-0.62 -2.8739,-0.62 -0.9829,0 -1.7846,0.2873 -2.42,0.862 -0.6351,0.5748 -1.1495,1.4974 -1.5728,2.7679 l -5.2636,0 c 0.8318,-3.7813 2.0115,-6.5643 3.5695,-8.364 1.5426,-1.8 3.524,-2.7076 5.944,-2.7076 0.4843,0 1.0436,0.0607 1.6941,0.1817 0.6505,0.1059 1.4066,0.3023 2.2991,0.5596 l 4.2046,1.1341 c 0.3633,0.1515 0.7413,0.2423 1.1495,0.3027 0.4236,0.0606 0.8774,0.0908 1.3764,0.0908 0.9377,0 1.7548,-0.3026 2.4201,-0.9226 0.6505,-0.62 1.1495,-1.5276 1.4823,-2.7076 l 5.2636,0 z m 52.8314,42.8041 c 0,-3.3276 -0.8469,-5.9591 -2.5256,-7.8801 -1.679,-1.921 -3.963,-2.8889 -6.8217,-2.8889 -2.8889,0 -5.1725,0.9679 -6.8515,2.8889 -1.6637,1.921 -2.4958,4.5525 -2.4958,7.8801 0,3.3426 0.8321,5.9745 2.4807,7.8801 1.6485,1.9059 3.9476,2.8587 6.8666,2.8587 2.8889,0 5.1729,-0.9528 6.8519,-2.8587 1.6636,-1.9056 2.4954,-4.5375 2.4954,-7.8801 z m 15.6999,0 c 0,3.2216 -0.6351,6.2922 -1.8905,9.1811 -1.2554,2.9039 -3.0705,5.5053 -5.4752,7.8043 -2.42,2.2991 -5.1276,4.0535 -8.1224,5.2335 -3.0098,1.1797 -6.1859,1.7695 -9.5591,1.7695 -3.4331,0 -6.6397,-0.5898 -9.6345,-1.7695 -3.0099,-1.18 -5.687,-2.9344 -8.0467,-5.2335 -2.3744,-2.2535 -4.1744,-4.825 -5.4148,-7.7289 -1.2397,-2.9191 -1.86,-6.0047 -1.86,-9.2565 0,-3.2669 0.6203,-6.3526 1.8449,-9.2565 1.2253,-2.8889 3.025,-5.4906 5.4299,-7.8047 2.3293,-2.2686 4.9916,-3.9928 8.0014,-5.1424 2.9948,-1.1495 6.2162,-1.7242 9.6798,-1.7242 3.4637,0 6.6853,0.5747 9.6651,1.7242 2.9797,1.1496 5.6567,2.8738 8.0164,5.1424 2.4351,2.3446 4.2653,4.961 5.5053,7.8499 1.2404,2.8889 1.8604,5.9745 1.8604,9.2113 z"
     style="fill:#008bd0;fill-rule:evenodd"
     id="path12"
     inkscape:connector-curvature="0" />
</svg>
